# xmcd
#
# Track frame offsets:
#  150
#  23831
#  48771
#  63330
#  95520
#  115004
#  135007
#  151743
#  165322
#  182052
#
# Disc length: 2657 seconds
#
# Revision: 0
# Processed by: cddbd v1.5.1PL0 Copyright (c) Steve Scherf et al.
# Submitted via: Collectorz.com Music Collector 6.9
#
DISCID=680a5f0a
DTITLE=Hubert Sumlin - Blues Guitar Boss
DYEAR=2005
DGENRE=
TTITLE0=All I Can Do
TTITLE1=You Got To Help Me
TTITLE2=Blues Is Here To Stay
TTITLE3=Sometimes I'm Right
TTITLE4=Spanish Greens
TTITLE5=Still Playing The Blues
TTITLE6=It Could Be You
TTITLE7=Pickin'
TTITLE8=Look Don't Touch
TTITLE9=I've Stopped Crying
EXTD=
EXTT0=
EXTT1=
EXTT2=
EXTT3=
EXTT4=
EXTT5=
EXTT6=
EXTT7=
EXTT8=
EXTT9=
PLAYORDER=
